<svg width="380" height="44" viewBox="0 0 380 44" fill="none" xmlns="http://www.w3.org/2000/svg">
<g clip-path="url(#clip0_126_3630)">
<path d="M81.5 24H80.71L80.43 23.73C81.41 22.59 82 21.11 82 19.5C82 15.91 79.09 13 75.5 13C71.91 13 69 15.91 69 19.5C69 23.09 71.91 26 75.5 26C77.11 26 78.59 25.41 79.73 24.43L80 24.71V25.5L85 30.49L86.49 29L81.5 24ZM75.5 24C73.01 24 71 21.99 71 19.5C71 17.01 73.01 15 75.5 15C77.99 15 80 17.01 80 19.5C80 21.99 77.99 24 75.5 24Z" fill="white"/>
</g>
<path d="M108.904 28.348L106.958 26.402C106.482 26.5327 105.997 26.598 105.502 26.598C104.597 26.598 103.771 26.388 103.024 25.968C102.277 25.5387 101.685 24.946 101.246 24.19C100.817 23.4247 100.602 22.566 100.602 21.614C100.602 20.662 100.817 19.808 101.246 19.052C101.685 18.2867 102.277 17.694 103.024 17.274C103.771 16.8447 104.597 16.63 105.502 16.63C106.417 16.63 107.247 16.8447 107.994 17.274C108.741 17.694 109.329 18.282 109.758 19.038C110.187 19.794 110.402 20.6527 110.402 21.614C110.402 22.5473 110.197 23.3873 109.786 24.134C109.375 24.8807 108.811 25.4687 108.092 25.898L110.556 28.348H108.904ZM101.904 21.614C101.904 22.3887 102.058 23.07 102.366 23.658C102.683 24.246 103.113 24.6987 103.654 25.016C104.205 25.3333 104.821 25.492 105.502 25.492C106.183 25.492 106.795 25.3333 107.336 25.016C107.887 24.6987 108.316 24.246 108.624 23.658C108.941 23.07 109.1 22.3887 109.1 21.614C109.1 20.83 108.941 20.1487 108.624 19.57C108.316 18.982 107.891 18.5293 107.35 18.212C106.809 17.8947 106.193 17.736 105.502 17.736C104.811 17.736 104.195 17.8947 103.654 18.212C103.113 18.5293 102.683 18.982 102.366 19.57C102.058 20.1487 101.904 20.83 101.904 21.614ZM118.915 18.828V26.5H117.641V25.366C117.399 25.758 117.058 26.066 116.619 26.29C116.19 26.5047 115.714 26.612 115.191 26.612C114.594 26.612 114.057 26.4907 113.581 26.248C113.105 25.996 112.727 25.6227 112.447 25.128C112.177 24.6333 112.041 24.0313 112.041 23.322V18.828H113.301V23.154C113.301 23.91 113.493 24.4933 113.875 24.904C114.258 25.3053 114.781 25.506 115.443 25.506C116.125 25.506 116.661 25.296 117.053 24.876C117.445 24.456 117.641 23.8447 117.641 23.042V18.828H118.915ZM120.59 22.636C120.59 21.852 120.749 21.166 121.066 20.578C121.384 19.9807 121.818 19.5187 122.368 19.192C122.928 18.8653 123.549 18.702 124.23 18.702C124.902 18.702 125.486 18.8467 125.98 19.136C126.475 19.4253 126.844 19.7893 127.086 20.228V18.828H128.374V26.5H127.086V25.072C126.834 25.52 126.456 25.8933 125.952 26.192C125.458 26.4813 124.879 26.626 124.216 26.626C123.535 26.626 122.919 26.458 122.368 26.122C121.818 25.786 121.384 25.3147 121.066 24.708C120.749 24.1013 120.59 23.4107 120.59 22.636ZM127.086 22.65C127.086 22.0713 126.97 21.5673 126.736 21.138C126.503 20.7087 126.186 20.382 125.784 20.158C125.392 19.9247 124.958 19.808 124.482 19.808C124.006 19.808 123.572 19.92 123.18 20.144C122.788 20.368 122.476 20.6947 122.242 21.124C122.009 21.5533 121.892 22.0573 121.892 22.636C121.892 23.224 122.009 23.7373 122.242 24.176C122.476 24.6053 122.788 24.9367 123.18 25.17C123.572 25.394 124.006 25.506 124.482 25.506C124.958 25.506 125.392 25.394 125.784 25.17C126.186 24.9367 126.503 24.6053 126.736 24.176C126.97 23.7373 127.086 23.2287 127.086 22.65ZM131.801 16.14V26.5H130.527V16.14H131.801ZM140.421 26.626C139.833 26.626 139.306 26.528 138.839 26.332C138.372 26.1267 138.004 25.8467 137.733 25.492C137.462 25.128 137.313 24.7127 137.285 24.246H138.601C138.638 24.6287 138.816 24.9413 139.133 25.184C139.46 25.4267 139.884 25.548 140.407 25.548C140.892 25.548 141.275 25.4407 141.555 25.226C141.835 25.0113 141.975 24.7407 141.975 24.414C141.975 24.078 141.826 23.8307 141.527 23.672C141.228 23.504 140.766 23.3407 140.141 23.182C139.572 23.0327 139.105 22.8833 138.741 22.734C138.386 22.5753 138.078 22.3467 137.817 22.048C137.565 21.74 137.439 21.3387 137.439 20.844C137.439 20.452 137.556 20.0927 137.789 19.766C138.022 19.4393 138.354 19.1827 138.783 18.996C139.212 18.8 139.702 18.702 140.253 18.702C141.102 18.702 141.788 18.9167 142.311 19.346C142.834 19.7753 143.114 20.3633 143.151 21.11H141.877C141.849 20.7087 141.686 20.3867 141.387 20.144C141.098 19.9013 140.706 19.78 140.211 19.78C139.754 19.78 139.39 19.878 139.119 20.074C138.848 20.27 138.713 20.5267 138.713 20.844C138.713 21.096 138.792 21.306 138.951 21.474C139.119 21.6327 139.324 21.7633 139.567 21.866C139.819 21.9593 140.164 22.0667 140.603 22.188C141.154 22.3373 141.602 22.4867 141.947 22.636C142.292 22.776 142.586 22.9907 142.829 23.28C143.081 23.5693 143.212 23.9473 143.221 24.414C143.221 24.834 143.104 25.212 142.871 25.548C142.638 25.884 142.306 26.15 141.877 26.346C141.457 26.5327 140.972 26.626 140.421 26.626ZM152.019 22.37C152.019 22.6127 152.005 22.8693 151.977 23.14H145.845C145.892 23.896 146.149 24.4887 146.615 24.918C147.091 25.338 147.665 25.548 148.337 25.548C148.888 25.548 149.345 25.422 149.709 25.17C150.083 24.9087 150.344 24.5633 150.493 24.134H151.865C151.66 24.8713 151.249 25.4733 150.633 25.94C150.017 26.3973 149.252 26.626 148.337 26.626C147.609 26.626 146.956 26.4627 146.377 26.136C145.808 25.8093 145.36 25.3473 145.033 24.75C144.707 24.1433 144.543 23.4433 144.543 22.65C144.543 21.8567 144.702 21.1613 145.019 20.564C145.337 19.9667 145.78 19.5093 146.349 19.192C146.928 18.8653 147.591 18.702 148.337 18.702C149.065 18.702 149.709 18.8607 150.269 19.178C150.829 19.4953 151.259 19.934 151.557 20.494C151.865 21.0447 152.019 21.67 152.019 22.37ZM150.703 22.104C150.703 21.6187 150.596 21.2033 150.381 20.858C150.167 20.5033 149.873 20.2373 149.499 20.06C149.135 19.8733 148.729 19.78 148.281 19.78C147.637 19.78 147.087 19.9853 146.629 20.396C146.181 20.8067 145.925 21.376 145.859 22.104H150.703ZM154.975 20.074C155.199 19.6353 155.516 19.2947 155.927 19.052C156.347 18.8093 156.856 18.688 157.453 18.688V20.004H157.117C155.689 20.004 154.975 20.7787 154.975 22.328V26.5H153.701V18.828H154.975V20.074ZM158.448 22.636C158.448 21.852 158.606 21.166 158.924 20.578C159.241 19.9807 159.675 19.5187 160.226 19.192C160.786 18.8653 161.406 18.702 162.088 18.702C162.76 18.702 163.343 18.8467 163.838 19.136C164.332 19.4253 164.701 19.7893 164.944 20.228V18.828H166.232V26.5H164.944V25.072C164.692 25.52 164.314 25.8933 163.81 26.192C163.315 26.4813 162.736 26.626 162.074 26.626C161.392 26.626 160.776 26.458 160.226 26.122C159.675 25.786 159.241 25.3147 158.924 24.708C158.606 24.1013 158.448 23.4107 158.448 22.636ZM164.944 22.65C164.944 22.0713 164.827 21.5673 164.594 21.138C164.36 20.7087 164.043 20.382 163.642 20.158C163.25 19.9247 162.816 19.808 162.34 19.808C161.864 19.808 161.43 19.92 161.038 20.144C160.646 20.368 160.333 20.6947 160.1 21.124C159.866 21.5533 159.75 22.0573 159.75 22.636C159.75 23.224 159.866 23.7373 160.1 24.176C160.333 24.6053 160.646 24.9367 161.038 25.17C161.43 25.394 161.864 25.506 162.34 25.506C162.816 25.506 163.25 25.394 163.642 25.17C164.043 24.9367 164.36 24.6053 164.594 24.176C164.827 23.7373 164.944 23.2287 164.944 22.65ZM163.95 16.658L160.968 18.254V17.302L163.95 15.552V16.658ZM174.833 26.626C174.245 26.626 173.718 26.528 173.251 26.332C172.784 26.1267 172.416 25.8467 172.145 25.492C171.874 25.128 171.725 24.7127 171.697 24.246H173.013C173.05 24.6287 173.228 24.9413 173.545 25.184C173.872 25.4267 174.296 25.548 174.819 25.548C175.304 25.548 175.687 25.4407 175.967 25.226C176.247 25.0113 176.387 24.7407 176.387 24.414C176.387 24.078 176.238 23.8307 175.939 23.672C175.64 23.504 175.178 23.3407 174.553 23.182C173.984 23.0327 173.517 22.8833 173.153 22.734C172.798 22.5753 172.49 22.3467 172.229 22.048C171.977 21.74 171.851 21.3387 171.851 20.844C171.851 20.452 171.968 20.0927 172.201 19.766C172.434 19.4393 172.766 19.1827 173.195 18.996C173.624 18.8 174.114 18.702 174.665 18.702C175.514 18.702 176.2 18.9167 176.723 19.346C177.246 19.7753 177.526 20.3633 177.563 21.11H176.289C176.261 20.7087 176.098 20.3867 175.799 20.144C175.51 19.9013 175.118 19.78 174.623 19.78C174.166 19.78 173.802 19.878 173.531 20.074C173.26 20.27 173.125 20.5267 173.125 20.844C173.125 21.096 173.204 21.306 173.363 21.474C173.531 21.6327 173.736 21.7633 173.979 21.866C174.231 21.9593 174.576 22.0667 175.015 22.188C175.566 22.3373 176.014 22.4867 176.359 22.636C176.704 22.776 176.998 22.9907 177.241 23.28C177.493 23.5693 177.624 23.9473 177.633 24.414C177.633 24.834 177.516 25.212 177.283 25.548C177.05 25.884 176.718 26.15 176.289 26.346C175.869 26.5327 175.384 26.626 174.833 26.626ZM186.236 18.828V26.5H184.962V25.366C184.719 25.758 184.378 26.066 183.94 26.29C183.51 26.5047 183.034 26.612 182.512 26.612C181.914 26.612 181.378 26.4907 180.902 26.248C180.426 25.996 180.048 25.6227 179.768 25.128C179.497 24.6333 179.362 24.0313 179.362 23.322V18.828H180.622V23.154C180.622 23.91 180.813 24.4933 181.196 24.904C181.578 25.3053 182.101 25.506 182.764 25.506C183.445 25.506 183.982 25.296 184.374 24.876C184.766 24.456 184.962 23.8447 184.962 23.042V18.828H186.236ZM187.911 22.636C187.911 21.852 188.069 21.166 188.387 20.578C188.704 19.9807 189.138 19.5187 189.689 19.192C190.249 18.8653 190.869 18.702 191.551 18.702C192.223 18.702 192.806 18.8467 193.301 19.136C193.795 19.4253 194.164 19.7893 194.407 20.228V18.828H195.695V26.5H194.407V25.072C194.155 25.52 193.777 25.8933 193.273 26.192C192.778 26.4813 192.199 26.626 191.537 26.626C190.855 26.626 190.239 26.458 189.689 26.122C189.138 25.786 188.704 25.3147 188.387 24.708C188.069 24.1013 187.911 23.4107 187.911 22.636ZM194.407 22.65C194.407 22.0713 194.29 21.5673 194.057 21.138C193.823 20.7087 193.506 20.382 193.105 20.158C192.713 19.9247 192.279 19.808 191.803 19.808C191.327 19.808 190.893 19.92 190.501 20.144C190.109 20.368 189.796 20.6947 189.563 21.124C189.329 21.5533 189.213 22.0573 189.213 22.636C189.213 23.224 189.329 23.7373 189.563 24.176C189.796 24.6053 190.109 24.9367 190.501 25.17C190.893 25.394 191.327 25.506 191.803 25.506C192.279 25.506 192.713 25.394 193.105 25.17C193.506 24.9367 193.823 24.6053 194.057 24.176C194.29 23.7373 194.407 23.2287 194.407 22.65ZM202.854 20.242C203.106 19.8033 203.479 19.4393 203.974 19.15C204.478 18.8513 205.061 18.702 205.724 18.702C206.405 18.702 207.021 18.8653 207.572 19.192C208.132 19.5187 208.571 19.9807 208.888 20.578C209.205 21.166 209.364 21.852 209.364 22.636C209.364 23.4107 209.205 24.1013 208.888 24.708C208.571 25.3147 208.132 25.786 207.572 26.122C207.021 26.458 206.405 26.626 205.724 26.626C205.071 26.626 204.492 26.4813 203.988 26.192C203.493 25.8933 203.115 25.5247 202.854 25.086V30.14H201.58V18.828H202.854V20.242ZM208.062 22.636C208.062 22.0573 207.945 21.5533 207.712 21.124C207.479 20.6947 207.161 20.368 206.76 20.144C206.368 19.92 205.934 19.808 205.458 19.808C204.991 19.808 204.557 19.9247 204.156 20.158C203.764 20.382 203.447 20.7133 203.204 21.152C202.971 21.5813 202.854 22.0807 202.854 22.65C202.854 23.2287 202.971 23.7373 203.204 24.176C203.447 24.6053 203.764 24.9367 204.156 25.17C204.557 25.394 204.991 25.506 205.458 25.506C205.934 25.506 206.368 25.394 206.76 25.17C207.161 24.9367 207.479 24.6053 207.712 24.176C207.945 23.7373 208.062 23.224 208.062 22.636ZM212.315 20.074C212.539 19.6353 212.856 19.2947 213.267 19.052C213.687 18.8093 214.196 18.688 214.793 18.688V20.004H214.457C213.029 20.004 212.315 20.7787 212.315 22.328V26.5H211.041V18.828H212.315V20.074ZM219.61 26.626C218.891 26.626 218.238 26.4627 217.65 26.136C217.071 25.8093 216.614 25.3473 216.278 24.75C215.951 24.1433 215.788 23.4433 215.788 22.65C215.788 21.866 215.956 21.1753 216.292 20.578C216.637 19.9713 217.104 19.5093 217.692 19.192C218.28 18.8653 218.938 18.702 219.666 18.702C220.394 18.702 221.052 18.8653 221.64 19.192C222.228 19.5093 222.69 19.9667 223.026 20.564C223.371 21.1613 223.544 21.8567 223.544 22.65C223.544 23.4433 223.366 24.1433 223.012 24.75C222.666 25.3473 222.195 25.8093 221.598 26.136C221 26.4627 220.338 26.626 219.61 26.626ZM219.61 25.506C220.067 25.506 220.496 25.3987 220.898 25.184C221.299 24.9693 221.621 24.6473 221.864 24.218C222.116 23.7887 222.242 23.266 222.242 22.65C222.242 22.034 222.12 21.5113 221.878 21.082C221.635 20.6527 221.318 20.3353 220.926 20.13C220.534 19.9153 220.109 19.808 219.652 19.808C219.185 19.808 218.756 19.9153 218.364 20.13C217.981 20.3353 217.673 20.6527 217.44 21.082C217.206 21.5113 217.09 22.034 217.09 22.65C217.09 23.2753 217.202 23.8027 217.426 24.232C217.659 24.6613 217.967 24.9833 218.35 25.198C218.732 25.4033 219.152 25.506 219.61 25.506ZM221.038 16.56L218.056 18.156V17.204L221.038 15.454V16.56ZM229.223 26.5L227.403 23.644L225.653 26.5H224.323L226.801 22.692L224.323 18.828H225.765L227.585 21.67L229.321 18.828H230.651L228.187 22.622L230.665 26.5H229.223ZM232.576 17.582C232.333 17.582 232.128 17.498 231.96 17.33C231.792 17.162 231.708 16.9567 231.708 16.714C231.708 16.4713 231.792 16.266 231.96 16.098C232.128 15.93 232.333 15.846 232.576 15.846C232.809 15.846 233.005 15.93 233.164 16.098C233.332 16.266 233.416 16.4713 233.416 16.714C233.416 16.9567 233.332 17.162 233.164 17.33C233.005 17.498 232.809 17.582 232.576 17.582ZM233.192 18.828V26.5H231.918V18.828H233.192ZM244.589 18.688C245.186 18.688 245.718 18.814 246.185 19.066C246.652 19.3087 247.02 19.6773 247.291 20.172C247.562 20.6667 247.697 21.2687 247.697 21.978V26.5H246.437V22.16C246.437 21.3947 246.246 20.8113 245.863 20.41C245.49 19.9993 244.981 19.794 244.337 19.794C243.674 19.794 243.147 20.0087 242.755 20.438C242.363 20.858 242.167 21.4693 242.167 22.272V26.5H240.907V22.16C240.907 21.3947 240.716 20.8113 240.333 20.41C239.96 19.9993 239.451 19.794 238.807 19.794C238.144 19.794 237.617 20.0087 237.225 20.438C236.833 20.858 236.637 21.4693 236.637 22.272V26.5H235.363V18.828H236.637V19.934C236.889 19.5327 237.225 19.2247 237.645 19.01C238.074 18.7953 238.546 18.688 239.059 18.688C239.703 18.688 240.272 18.8327 240.767 19.122C241.262 19.4113 241.63 19.836 241.873 20.396C242.088 19.8547 242.442 19.4347 242.937 19.136C243.432 18.8373 243.982 18.688 244.589 18.688ZM249.311 22.636C249.311 21.852 249.47 21.166 249.787 20.578C250.104 19.9807 250.538 19.5187 251.089 19.192C251.649 18.8653 252.27 18.702 252.951 18.702C253.623 18.702 254.206 18.8467 254.701 19.136C255.196 19.4253 255.564 19.7893 255.807 20.228V18.828H257.095V26.5H255.807V25.072C255.555 25.52 255.177 25.8933 254.673 26.192C254.178 26.4813 253.6 26.626 252.937 26.626C252.256 26.626 251.64 26.458 251.089 26.122C250.538 25.786 250.104 25.3147 249.787 24.708C249.47 24.1013 249.311 23.4107 249.311 22.636ZM255.807 22.65C255.807 22.0713 255.69 21.5673 255.457 21.138C255.224 20.7087 254.906 20.382 254.505 20.158C254.113 19.9247 253.679 19.808 253.203 19.808C252.727 19.808 252.293 19.92 251.901 20.144C251.509 20.368 251.196 20.6947 250.963 21.124C250.73 21.5533 250.613 22.0573 250.613 22.636C250.613 23.224 250.73 23.7373 250.963 24.176C251.196 24.6053 251.509 24.9367 251.901 25.17C252.293 25.394 252.727 25.506 253.203 25.506C253.679 25.506 254.113 25.394 254.505 25.17C254.906 24.9367 255.224 24.6053 255.457 24.176C255.69 23.7373 255.807 23.2287 255.807 22.65ZM264.254 16.14V26.5H262.98V16.14H264.254ZM273.426 22.37C273.426 22.6127 273.412 22.8693 273.384 23.14H267.252C267.298 23.896 267.555 24.4887 268.022 24.918C268.498 25.338 269.072 25.548 269.744 25.548C270.294 25.548 270.752 25.422 271.116 25.17C271.489 24.9087 271.75 24.5633 271.9 24.134H273.272C273.066 24.8713 272.656 25.4733 272.04 25.94C271.424 26.3973 270.658 26.626 269.744 26.626C269.016 26.626 268.362 26.4627 267.784 26.136C267.214 25.8093 266.766 25.3473 266.44 24.75C266.113 24.1433 265.95 23.4433 265.95 22.65C265.95 21.8567 266.108 21.1613 266.426 20.564C266.743 19.9667 267.186 19.5093 267.756 19.192C268.334 18.8653 268.997 18.702 269.744 18.702C270.472 18.702 271.116 18.8607 271.676 19.178C272.236 19.4953 272.665 19.934 272.964 20.494C273.272 21.0447 273.426 21.67 273.426 22.37ZM272.11 22.104C272.11 21.6187 272.002 21.2033 271.788 20.858C271.573 20.5033 271.279 20.2373 270.906 20.06C270.542 19.8733 270.136 19.78 269.688 19.78C269.044 19.78 268.493 19.9853 268.036 20.396C267.588 20.8067 267.331 21.376 267.266 22.104H272.11ZM275.765 17.582C275.523 17.582 275.317 17.498 275.149 17.33C274.981 17.162 274.897 16.9567 274.897 16.714C274.897 16.4713 274.981 16.266 275.149 16.098C275.317 15.93 275.523 15.846 275.765 15.846C275.999 15.846 276.195 15.93 276.353 16.098C276.521 16.266 276.605 16.4713 276.605 16.714C276.605 16.9567 276.521 17.162 276.353 17.33C276.195 17.498 275.999 17.582 275.765 17.582ZM276.381 18.828V26.5H275.107V18.828H276.381ZM280.107 19.878V24.4C280.107 24.7733 280.186 25.0393 280.345 25.198C280.503 25.3473 280.779 25.422 281.171 25.422H282.109V26.5H280.961C280.251 26.5 279.719 26.3367 279.365 26.01C279.01 25.6833 278.833 25.1467 278.833 24.4V19.878H277.839V18.828H278.833V16.896H280.107V18.828H282.109V19.878H280.107ZM290.456 18.828V26.5H289.182V25.366C288.94 25.758 288.599 26.066 288.16 26.29C287.731 26.5047 287.255 26.612 286.732 26.612C286.135 26.612 285.598 26.4907 285.122 26.248C284.646 25.996 284.268 25.6227 283.988 25.128C283.718 24.6333 283.582 24.0313 283.582 23.322V18.828H284.842V23.154C284.842 23.91 285.034 24.4933 285.416 24.904C285.799 25.3053 286.322 25.506 286.984 25.506C287.666 25.506 288.202 25.296 288.594 24.876C288.986 24.456 289.182 23.8447 289.182 23.042V18.828H290.456ZM293.881 20.074C294.105 19.6353 294.423 19.2947 294.833 19.052C295.253 18.8093 295.762 18.688 296.359 18.688V20.004H296.023C294.595 20.004 293.881 20.7787 293.881 22.328V26.5H292.607V18.828H293.881V20.074ZM297.354 22.636C297.354 21.852 297.513 21.166 297.83 20.578C298.147 19.9807 298.581 19.5187 299.132 19.192C299.692 18.8653 300.313 18.702 300.994 18.702C301.666 18.702 302.249 18.8467 302.744 19.136C303.239 19.4253 303.607 19.7893 303.85 20.228V18.828H305.138V26.5H303.85V25.072C303.598 25.52 303.22 25.8933 302.716 26.192C302.221 26.4813 301.643 26.626 300.98 26.626C300.299 26.626 299.683 26.458 299.132 26.122C298.581 25.786 298.147 25.3147 297.83 24.708C297.513 24.1013 297.354 23.4107 297.354 22.636ZM303.85 22.65C303.85 22.0713 303.733 21.5673 303.5 21.138C303.267 20.7087 302.949 20.382 302.548 20.158C302.156 19.9247 301.722 19.808 301.246 19.808C300.77 19.808 300.336 19.92 299.944 20.144C299.552 20.368 299.239 20.6947 299.006 21.124C298.773 21.5533 298.656 22.0573 298.656 22.636C298.656 23.224 298.773 23.7373 299.006 24.176C299.239 24.6053 299.552 24.9367 299.944 25.17C300.336 25.394 300.77 25.506 301.246 25.506C301.722 25.506 302.156 25.394 302.548 25.17C302.949 24.9367 303.267 24.6053 303.5 24.176C303.733 23.7373 303.85 23.2287 303.85 22.65ZM309.783 16.616C310.707 16.616 311.454 16.8773 312.023 17.4C312.592 17.9227 312.877 18.6227 312.877 19.5C312.877 20.48 312.574 21.208 311.967 21.684C311.36 22.1507 310.539 22.384 309.503 22.384L309.461 23.714H308.355L308.299 21.502H308.705C309.629 21.502 310.352 21.362 310.875 21.082C311.398 20.802 311.659 20.2747 311.659 19.5C311.659 18.94 311.491 18.4967 311.155 18.17C310.819 17.8433 310.366 17.68 309.797 17.68C309.218 17.68 308.761 17.8387 308.425 18.156C308.098 18.464 307.935 18.8887 307.935 19.43H306.731C306.731 18.87 306.857 18.38 307.109 17.96C307.361 17.5307 307.716 17.1993 308.173 16.966C308.64 16.7327 309.176 16.616 309.783 16.616ZM308.901 26.584C308.658 26.584 308.453 26.5 308.285 26.332C308.117 26.164 308.033 25.9587 308.033 25.716C308.033 25.4733 308.117 25.268 308.285 25.1C308.453 24.932 308.658 24.848 308.901 24.848C309.134 24.848 309.33 24.932 309.489 25.1C309.657 25.268 309.741 25.4733 309.741 25.716C309.741 25.9587 309.657 26.164 309.489 26.332C309.33 26.5 309.134 26.584 308.901 26.584Z" fill="white"/>
<rect x="0.5" y="0.5" width="379" height="43" rx="21.5" stroke="white"/>
<defs>
<clipPath id="clip0_126_3630">
<rect width="24" height="24" fill="white" transform="translate(66 10)"/>
</clipPath>
</defs>
</svg>
